HIERARCHY
ROOT Hips
{
	OFFSET 0.000000 0.000000 0.000000
	CHANNELS 6 Xposition Yposition Zposition Zrotation Yrotation Xrotation 
	JOINT LeftUpLeg_virtual
	{
		OFFSET 0.000000 0.000000 0.000000
		CHANNELS 3 Zrotation Yrotation Xrotation
		JOINT LeftUpLeg
		{
			OFFSET 10.205400 -3.823500 0.155100
			CHANNELS 3 Zrotation Yrotation Xrotation
			JOINT LeftLeg
			{
				OFFSET 0.708757 -12.982077 0.567790
				CHANNELS 3 Zrotation Yrotation Xrotation
				JOINT LeftFoot
				{
					OFFSET -0.708756 -10.717838 -2.184338
					CHANNELS 3 Zrotation Yrotation Xrotation
					JOINT LeftToeBase
					{
						OFFSET 0.108149 -7.191104 7.560241
						CHANNELS 3 Zrotation Yrotation Xrotation
						End Site
						{
							OFFSET 0.000000 0.000000 0.000000
						}
					}
				}
			}
		}
	}
	JOINT RightUpLeg_virtual
	{
		OFFSET 0.000000 0.000000 0.000000
		CHANNELS 3 Zrotation Yrotation Xrotation
		JOINT RightUpLeg
		{
			OFFSET -10.205400 -3.823500 0.005500
			CHANNELS 3 Zrotation Yrotation Xrotation
			JOINT RightLeg
			{
				OFFSET -0.708756 -12.982134 0.610632
				CHANNELS 3 Zrotation Yrotation Xrotation
				JOINT RightFoot
				{
					OFFSET 0.708754 -10.717769 -1.945823
					CHANNELS 3 Zrotation Yrotation Xrotation
					JOINT RightToeBase
					{
						OFFSET -0.108140 -7.191069 7.372968
						CHANNELS 3 Zrotation Yrotation Xrotation
						End Site
						{
							OFFSET 0.000000 0.000000 0.000000
						}
					}
				}
			}
		}
	}
	JOINT Spine_virtual
	{
		OFFSET 0.000000 0.000000 0.000000
		CHANNELS 3 Zrotation Yrotation Xrotation
		JOINT Spine
		{
			OFFSET 0.000000 6.876099 0.125700
			CHANNELS 3 Zrotation Yrotation Xrotation
			JOINT Spine1
			{
				OFFSET 0.000000 8.022060 0.146608
				CHANNELS 3 Zrotation Yrotation Xrotation
				JOINT Spine2
				{
					OFFSET 0.000000 9.168068 0.167552
					CHANNELS 3 Zrotation Yrotation Xrotation
					JOINT Neck_virtual
					{
						OFFSET 0.000000 0.000000 0.000000
						CHANNELS 3 Zrotation Yrotation Xrotation
						JOINT Neck
						{
							OFFSET 0.000000 10.314075 0.188496
							CHANNELS 3 Zrotation Yrotation Xrotation
							JOINT Head
							{
								OFFSET 0.000000 7.643700 -2.377400
								CHANNELS 3 Zrotation Yrotation Xrotation
								End Site
								{
									OFFSET 0.000000 0.000000 0.000000
								}
							}
						}
					}
					JOINT LeftShoulder_virtual
					{
						OFFSET 0.000000 0.000000 0.000000
						CHANNELS 3 Zrotation Yrotation Xrotation
						JOINT LeftShoulder
						{
							OFFSET 4.392200 8.824978 0.174984
							CHANNELS 3 Zrotation Yrotation Xrotation
							JOINT LeftArm
							{
								OFFSET 8.771219 -2.981674 -0.026999
								CHANNELS 3 Zrotation Yrotation Xrotation
								JOINT LeftForeArm
								{
									OFFSET 8.512804 0.000000 -0.000000
									CHANNELS 3 Zrotation Yrotation Xrotation
									JOINT LeftHand
									{
										OFFSET 18.484802 0.000000 -0.000000
										CHANNELS 3 Zrotation Yrotation Xrotation
										End Site
										{
											OFFSET 0.000000 0.000000 0.000000
										}
									}
								}
							}
						}
					}
					JOINT RightShoulder_virtual
					{
						OFFSET 0.000000 0.000000 0.000000
						CHANNELS 3 Zrotation Yrotation Xrotation
						JOINT RightShoulder
						{
							OFFSET -4.392200 8.824993 0.141379
							CHANNELS 3 Zrotation Yrotation Xrotation
							JOINT RightArm
							{
								OFFSET -8.771282 -2.981682 -0.094208
								CHANNELS 3 Zrotation Yrotation Xrotation
								JOINT RightForeArm
								{
									OFFSET -8.494598 0.000000 0.000000
									CHANNELS 3 Zrotation Yrotation Xrotation
									JOINT RightHand
									{
										OFFSET -18.483803 0.000000 0.000001
										CHANNELS 3 Zrotation Yrotation Xrotation
										End Site
										{
											OFFSET 0.000000 0.000000 0.000000
										}
									}
								}
							}
						}
					}
				}
			}
		}
	}
}
MOTION
Frames: 5
Frame Time: 0.033333
7.589556 34.571407 36.117989 0.956316 -79.107907 -0.506367 -4.122429 2.312946 7.607506 -10.983567 9.898173 -18.832577 18.187067 10.128408 31.457505 -3.493913 3.071512 -0.155387 0.000000 0.000000 0.000000 -0.946224 6.021767 6.311146 -4.197097 -18.373113 -31.531923 -5.171592 -0.254273 28.890416 -1.362175 1.749100 16.589720 0.000000 0.000000 0.000000 -2.050434 5.384529 -6.426659 5.606428 2.849100 -7.705404 -0.366470 -6.257158 9.905727 0.044469 0.067410 0.095778 -0.432054 -4.611987 12.667499 6.190497 -13.596289 20.858465 0.000000 0.000000 0.000000 1.189512 -4.377447 8.840328 -7.616245 -10.176924 1.590724 -35.079585 -21.066204 1.576190 -142.975079 -77.695820 160.090345 0.000000 0.000000 0.000000 -2.595192 -2.673290 8.387992 19.001036 5.768700 -7.190265 47.270868 -13.666667 -1.369339 -175.142989 68.959407 178.215454 0.000000 0.000000 0.000000 
6.854173 34.539047 35.442986 3.000371 -82.621930 -2.288964 -4.096381 2.187963 7.741582 -9.952711 10.578191 -17.794333 18.961655 8.842285 32.125764 -3.745462 2.603737 -0.156240 0.000000 0.000000 0.000000 -0.444946 5.446388 6.030055 -4.677507 -19.402860 -31.399544 -4.899582 0.457407 27.546296 -1.780187 0.890819 14.348921 0.000000 0.000000 0.000000 -1.995464 5.158050 -6.485196 5.542127 2.910284 -7.953614 -0.503095 -6.217635 9.830207 0.011942 0.110187 0.111909 -0.523998 -4.563653 12.649996 5.774085 -13.476973 21.079289 0.000000 0.000000 0.000000 1.232090 -4.301163 8.738366 -7.196415 -9.603436 1.554243 -35.325018 -20.831986 1.912072 -143.930555 -77.605477 160.950963 0.000000 0.000000 0.000000 -2.772019 -2.661964 8.395701 19.471483 6.049050 -6.904730 47.191283 -12.988016 -0.767072 -175.674378 68.709825 177.475704 0.000000 0.000000 0.000000 
6.071510 34.510025 34.554939 7.495308 -86.092492 -6.457804 -4.337524 2.384846 8.292086 -8.258774 11.286566 -16.703566 18.946878 7.216208 32.423058 -3.526162 2.587022 -0.079878 0.000000 0.000000 0.000000 -0.162835 4.876916 5.648761 -3.951434 -19.153401 -32.668911 -4.249435 0.970214 27.222416 -1.921743 0.438205 13.266120 0.000000 0.000000 0.000000 -1.994159 5.092887 -6.268683 5.449007 2.915283 -8.378176 -0.510051 -6.158000 9.658514 0.050598 0.144942 0.069550 -0.548921 -4.578473 12.585911 5.382258 -13.206733 21.001240 0.000000 0.000000 0.000000 1.243260 -4.222040 8.768301 -6.918303 -9.109072 1.635998 -35.565075 -21.001179 1.977567 -145.338926 -77.445883 162.165466 0.000000 0.000000 0.000000 -2.867218 -2.556092 8.365817 19.900422 6.349220 -6.388972 47.004358 -12.129665 -0.320555 -175.742980 68.509482 177.214053 0.000000 0.000000 0.000000 
5.210832 34.480198 33.534706 32.747199 -89.133627 -31.506099 -4.702216 2.602477 9.018083 -6.221923 12.335322 -15.875844 18.678605 5.062414 32.132301 -3.246301 2.740044 0.200378 0.000000 0.000000 0.000000 -0.035097 4.497624 5.607486 -2.069294 -18.893067 -34.421906 -3.610271 0.966883 27.510455 -2.322222 -0.012918 12.545429 0.000000 0.000000 0.000000 -1.945358 4.995540 -5.895945 5.405001 2.792622 -8.883742 -0.503505 -6.154004 9.487181 0.036322 0.122063 0.078403 -0.564117 -4.495652 12.397103 4.837259 -12.876402 20.855183 0.000000 0.000000 0.000000 1.330287 -4.215736 8.751595 -6.714958 -8.674952 1.719096 -36.136386 -21.683332 1.946811 -147.555609 -77.194477 164.134842 0.000000 0.000000 0.000000 -2.912941 -2.520852 8.289959 20.231504 6.719719 -5.997900 46.554289 -11.100016 -0.132186 -175.802840 68.307964 176.965803 0.000000 0.000000 0.000000 
4.289820 34.468987 32.377754 170.920334 -87.580627 -169.005053 -4.734813 2.553043 9.639171 -4.539469 13.482468 -15.245983 17.943508 2.437926 31.670160 -2.987057 3.099318 0.927540 0.000000 0.000000 0.000000 0.042215 4.211749 5.837317 0.610464 -18.253320 -36.065567 -2.511474 0.634522 28.504234 -2.525861 -0.022004 11.977670 0.000000 0.000000 0.000000 -1.993273 5.007706 -6.155060 5.331313 2.621439 -9.461232 -0.393930 -6.189853 9.500194 0.063292 0.063420 0.125870 -0.467911 -4.436394 12.250027 4.128378 -12.496944 20.621410 0.000000 0.000000 0.000000 1.387258 -4.168327 8.516338 -6.686169 -8.487420 1.416483 -36.645526 -23.041097 2.043331 -148.821271 -76.953808 165.116012 0.000000 0.000000 0.000000 -2.894694 -2.581681 8.153928 20.307739 7.184229 -5.748733 45.865120 -10.022113 -0.488997 -175.794371 68.072356 176.780650 0.000000 0.000000 0.000000 
